<?xml version="1.0" standalone="no"?>
<!DOCTYPE svg PUBLIC "-//W3C//DTD SVG 20010904//EN"
 "http://www.w3.org/TR/2001/REC-SVG-20010904/DTD/svg10.dtd">
<svg version="1.0" xmlns="http://www.w3.org/2000/svg"
 width="520.000000pt" height="520.000000pt" viewBox="0 0 520.000000 520.000000"
 preserveAspectRatio="xMidYMid meet">
<metadata>
Created by potrace 1.14, written by Peter Selinger 2001-2017
</metadata>
<g transform="translate(0.000000,520.000000) scale(0.100000,-0.100000)"
fill="#000000" stroke="none">
<path d="M2408 5195 c-2 -2 -32 -6 -68 -9 -79 -7 -137 -14 -170 -21 -14 -3
-38 -8 -55 -11 -223 -38 -528 -145 -735 -259 -19 -11 -37 -20 -40 -20 -26 -6
-258 -162 -358 -241 -103 -81 -297 -269 -367 -355 -27 -34 -55 -67 -60 -73
-23 -23 -137 -189 -179 -260 -93 -151 -204 -394 -251 -546 -44 -144 -81 -298
-91 -385 -4 -27 -8 -52 -9 -55 -2 -3 -7 -44 -12 -90 -15 -155 -9 -507 11 -620
4 -22 18 -122 18 -127 0 -4 38 -165 43 -186 3 -9 7 -25 9 -35 25 -105 138
-392 199 -502 17 -30 42 -75 55 -100 96 -173 243 -363 411 -530 191 -190 282
-262 508 -403 72 -46 273 -144 380 -186 93 -37 275 -95 327 -105 12 -2 50 -11
86 -19 56 -13 88 -18 180 -32 89 -14 197 -20 360 -20 210 0 272 5 450 34 183
31 474 120 618 190 9 4 39 19 67 32 27 13 66 33 85 45 19 12 37 21 40 22 14 1
144 82 248 154 154 107 395 334 514 484 220 277 375 573 471 899 35 121 54
200 63 265 2 19 6 42 9 50 5 17 13 74 25 180 8 77 6 478 -4 517 -2 12 -7 47
-11 78 -3 32 -15 100 -25 152 -93 451 -283 841 -573 1179 -258 300 -561 527
-911 685 -86 39 -233 97 -266 104 -8 2 -53 15 -100 29 -93 27 -265 63 -345 72
-27 3 -61 8 -75 11 -28 5 -466 13 -472 8z"/>
</g>
</svg>
